<svg xmlns:xlink="http://www.w3.org/1999/xlink" version="1.1" xmlns="http://www.w3.org/2000/svg" x="0px" y="0px"
     viewBox="0 0 297.5 297.5" style="enable-background:new 0 0 297.5 297.5;" xml:space="preserve">
<g>
    <g id="XMLID_48_">
        <g>
            <rect x="116.445" y="229.54" style="fill:#D61616;" width="13.83" height="13.84"/>
            <path style="fill:#FF4855;" d="M130.275,168.75c0,3.82-3.1,6.92-6.92,6.92c-3.79,0-6.88-3.07-6.91-6.86
                c0.19-2.35,2.98-8.29,6.92-15.16C127.315,160.53,130.105,166.47,130.275,168.75z"/>
            <path style="fill:#D61616;" d="M181.055,111.06v77.69c0,11.46-9.32,20.77-20.77,20.77h-73.85c-11.45,0-20.77-9.31-20.77-20.77
                v-77.69H181.055z M150.295,168.75c0-11.25-13.08-31.4-18.7-39.54c-1.87-2.7-4.95-4.32-8.24-4.32c-3.29,0-6.36,1.62-8.23,4.32
                c-5.63,8.14-18.7,28.29-18.7,39.54c0,14.86,12.08,26.94,26.93,26.94C138.215,195.69,150.295,183.61,150.295,168.75z"/>
            <rect x="65.665" y="43.35" style="fill:#CDD9DD;" width="115.39" height="47.69"/>
            <path d="M241.845,277.23c5.53,0,10.01,4.48,10.01,10.01s-4.48,10.01-10.01,10.01h-84.63c-20.75,0-38.16-14.48-42.7-33.85h-8.08
                c-5.53,0-10.01-4.48-10.01-10.01v-23.85h-9.99c-22.49,0-40.79-18.29-40.79-40.79V33.34c0-5.53,4.48-10.01,10.01-10.01h39.75
                c2.53-13.13,14.1-23.08,27.95-23.08c13.86,0,25.43,9.95,27.96,23.08h39.75c5.53,0,10.01,4.48,10.01,10.01v155.41
                c0,22.5-18.3,40.79-40.79,40.79h-9.99v23.85c0,5.53-4.48,10.01-10.01,10.01h-4.7c3.79,8.16,12.05,13.83,21.63,13.83H241.845z
                 M181.055,188.75v-77.69H65.665v77.69c0,11.46,9.32,20.77,20.77,20.77h73.85C171.735,209.52,181.055,200.21,181.055,188.75z
                 M181.055,91.04V43.35H65.665v47.69H181.055z M130.275,243.38v-13.84h-13.83v13.84H130.275z M116.855,23.33h13.01
                c-1.55-1.87-3.89-3.06-6.51-3.06C120.745,20.27,118.405,21.46,116.855,23.33z"/>
            <path d="M131.595,129.21c5.62,8.14,18.7,28.29,18.7,39.54c0,14.86-12.08,26.94-26.94,26.94c-14.85,0-26.93-12.08-26.93-26.94
                c0-11.25,13.07-31.4,18.7-39.54c1.87-2.7,4.94-4.32,8.23-4.32C126.645,124.89,129.725,126.51,131.595,129.21z M123.355,175.67
                c3.82,0,6.92-3.1,6.92-6.92c-0.17-2.28-2.96-8.22-6.91-15.1c-3.94,6.87-6.73,12.81-6.92,15.16
                C116.475,172.6,119.565,175.67,123.355,175.67z"/>
        </g>
    </g>
</g>
</svg>
